<?xml version="1.0" encoding="UTF-8"?>
<svg width="800" height="600" viewBox="0 0 800 600" fill="none" xmlns="http://www.w3.org/2000/svg">
    <!-- Large Leaves -->
    <path d="M100 300C150 250 200 200 250 200C300 200 350 250 350 300C350 350 300 400 250 400C200 400 150 350 100 300Z" fill="#2E7D32"/>
    <path d="M150 350C200 300 250 250 300 250C350 250 400 300 400 350C400 400 350 450 300 450C250 450 200 400 150 350Z" fill="#2E7D32"/>
    
    <!-- UI Container -->
    <rect x="300" y="100" width="300" height="400" rx="20" fill="#F5F5F5"/>
    
    <!-- Search Bar -->
    <rect x="320" y="120" width="260" height="50" rx="10" fill="#FF5252"/>
    <circle cx="340" cy="145" r="8" fill="white"/>
    <rect x="500" y="135" width="20" height="20" rx="5" fill="white"/>
    
    <!-- Content Blocks -->
    <rect x="320" y="190" width="260" height="80" rx="10" fill="#FFB300"/>
    
    <!-- Split Blocks -->
    <rect x="320" y="290" width="125" height="80" rx="10" fill="#E8EAF6"/>
    <rect x="455" y="290" width="125" height="80" rx="10" fill="#E8EAF6"/>
    
    <!-- Bottom Block -->
    <rect x="320" y="390" width="260" height="80" rx="10" fill="#4CAF50"/>
    
    <!-- Decorative Elements -->
    <path d="M50 450C100 400 150 400 200 450C250 500 200 550 150 550C100 550 0 500 50 450Z" fill="#FDD835" opacity="0.5"/>
    <path d="M600 150C650 100 700 100 750 150C800 200 750 250 700 250C650 250 550 200 600 150Z" fill="#FF8A65" opacity="0.5"/>
    <path d="M500 500C550 450 600 450 650 500C700 550 650 600 600 600C550 600 450 550 500 500Z" fill="#81C784" opacity="0.5"/>
    
    <!-- Characters -->
    <g transform="translate(550, 200)">
        <!-- Person 1 -->
        <circle cx="0" cy="0" r="25" fill="#424242"/>
        <rect x="-15" y="-10" width="30" height="30" rx="5" fill="#90CAF9"/>
        <circle cx="0" cy="-15" r="10" fill="#FFF59D"/>
        
        <!-- Person 2 -->
        <circle cx="50" cy="50" r="25" fill="#424242"/>
        <rect x="35" y="40" width="30" height="30" rx="5" fill="#EF9A9A"/>
        <circle cx="50" cy="35" r="10" fill="#FFE082"/>
        
        <!-- Person 3 -->
        <circle cx="-50" cy="50" r="25" fill="#424242"/>
        <rect x="-65" y="40" width="30" height="30" rx="5" fill="#A5D6A7"/>
        <circle cx="-50" cy="35" r="10" fill="#90CAF9"/>
    </g>
</svg> 