<?xml version="1.0" encoding="UTF-8" standalone="no" ?>
<!DOCTYPE svg PUBLIC "-//W3C//DTD SVG 1.1//EN" "http://www.w3.org/Graphics/SVG/1.1/DTD/svg11.dtd">
<svg xmlns="http://www.w3.org/2000/svg" xmlns:xlink="http://www.w3.org/1999/xlink" version="1.1" width="1280" height="1024" viewBox="0 0 1280 1024" xml:space="preserve">
<desc>Created with Fabric.js 5.3.0</desc>
<defs>
</defs>
<g transform="matrix(1 0 0 1 640 512)" id="background-logo"  >
<rect style="stroke: none; stroke-width: 0; stroke-dasharray: none; stroke-linecap: butt; stroke-dashoffset: 0; stroke-linejoin: miter; stroke-miterlimit: 4; fill: rgb(255,255,255); fill-rule: nonzero; opacity: 1;"  paint-order="stroke"  x="-640" y="-512" rx="0" ry="0" width="1280" height="1024" />
</g>
<g transform="matrix(3.240347570928392 0 0 3.2403475709283915 639.3125137634884 487.37202837615575)" id="logo-logo"  >
<g style=""  paint-order="stroke"   >
		<g transform="matrix(-1.5046158532093707 0 0 -1.5046158532093705 0 0)"  >
<g style=""  paint-order="stroke"   >
		<g transform="matrix(1 0 0 1 0 0)"  >
<path style="stroke: none; stroke-width: 1; stroke-dasharray: none; stroke-linecap: butt; stroke-dashoffset: 0; stroke-linejoin: miter; stroke-miterlimit: 4; fill: rgb(0,0,0); fill-rule: nonzero; opacity: 1;"  paint-order="stroke"  transform=" translate(-78.61978379461732, -60.93998946650237)" d="M 2.87 99.33 C 5.667728774393181 98.6351784984807 8.358741329382234 97.56550100787254 10.869999999999994 96.14999999999999 C 11.48 95.8 12.090000000000002 95.42999999999999 12.680000000000001 95.03999999999999 C 13.030000000000001 94.8 13.46 94.33 13.88 94.24999999999999 C 14.480888813938856 94.27409039490931 15.071571255463665 94.41327418860193 15.620000000000001 94.65999999999998 C 16.23 94.80999999999999 16.85 94.93999999999998 17.470000000000002 95.06999999999998 C 15.571494257498273 97.14655412304464 13.1559626217416 98.68214209148995 10.470000000000002 99.51999999999998 C 9.270000000000003 99.89999999999998 8.020000000000003 100.13999999999999 6.8400000000000025 100.58999999999997 C 6.230000000000002 100.81999999999998 5.680000000000002 100.45999999999998 5.080000000000003 100.22999999999998 C 4.480000000000003 99.99999999999997 3.61 99.64 2.87 99.33 Z M 37.36 72.8 C 37.67 72.72 38.87 72.57 39.04 72.21 C 39.21 71.85 38.28 71.58999999999999 38.04 71.5 C 34.839999999999996 70.31 31.48 69.5 28.22 68.5 C 26.3 75.36 26.84 82.72 28 89.64 C 27.9 83.35 30.47 74.63 37.36 72.8 Z M 42.36 74.2 C 44.83 77.57000000000001 44.63 81.54 43.5 85.39 C 42.04313247030686 89.80295425271785 39.845012112509885 93.93542052537616 37 97.61 C 34.74050760805822 100.70408466454846 32.16310950639174 103.5529642307598 29.310000000000002 106.11 C 25.89711338126504 109.07397834096082 22.214398054760405 111.71214168394779 18.310000000000006 113.99000000000001 C 16.018054657473513 115.49252910030067 13.57052775537029 116.74311476397808 11.01 117.72 C 10.481978806390345 117.91275299335415 9.940524893242733 118.06649916622322 9.389999999999997 118.17999999999999 C 9.130100443234882 118.20133338409435 8.872497684802221 118.24482475889467 8.619999999999994 118.30999999999999 C 8.299493670209827 118.51131690190928 8.001169036743292 118.74595425407396 7.729999999999993 119.00999999999999 Q 5.839999999999998 120.46 3.869999999999998 121.77999999999999 C 14.813328432699302 120.0147669654428 24.942855711741156 114.90808804062928 32.869999999999976 107.16 C 36.55797410234171 103.54498788772561 39.71291488156102 99.42369918573581 42.24 94.91999999999997 C 44.124582342314 91.72298990980916 45.602678385532485 88.30321315527183 46.639999999999986 84.74 C 47.32724065938898 82.63764140314466 47.37249925324661 80.37819314055987 46.769999999999996 78.24999999999999 C 46.08026063226174 76.2480363034907 44.43095791330067 74.72647001378856 42.38 74.2 Z M 25 96.64 C 23.28 96.31 21.55 95.95 19.83 95.64 C 19.40100603092072 95.48645831634937 18.953972527724154 95.38898484572756 18.5 95.35 C 18.16 95.35 17.83 95.89 17.56 96.16999999999999 C 16.978415282683997 96.76324897335779 16.349688901742788 97.30836812279085 15.679999999999998 97.79999999999998 C 14.433027881364211 98.71458002662065 13.067096276243191 99.45474000969115 11.620000000000001 99.99999999999999 C 10.32 100.48999999999998 8.96 100.76999999999998 7.620000000000001 101.18999999999998 C 11.565492492800068 102.51922888919819 15.647712071136908 103.40141767235562 19.789999999999964 103.81999999999998 C 19.07729512268436 106.01839007059448 18.046347117647397 108.10050074743384 16.730000000000004 110 C 14.755062376098435 112.66303317014038 12.465078630543383 115.07725357051292 9.909999999999993 117.19 C 13.280000000000001 116.25 16.34 114.24 19.28 112.42 C 21.822077984776406 110.87870537490411 24.266715091712193 109.18215394003612 26.600000000000023 107.33999999999999 C 31.100704474982344 103.67977266534793 35.004115370478075 99.34115001054455 38.17 94.48 C 40.02585719994543 91.77643105303738 41.5123306606573 88.83711475289672 42.59 85.74 C 43.48875100038166 83.34822889302599 43.75735211879406 80.76552583136831 43.370000000000005 78.24000000000001 C 43.05588232718325 76.84077580049609 42.43417465910607 75.52904094037721 41.550000000000004 74.4 C 41.18000000000001 73.91000000000001 40.980000000000004 73.89 40.36000000000001 73.84 C 39.98708439711524 73.8150237952604 39.61291560288477 73.8150237952604 39.24 73.84 C 38.23927714455541 73.88047515955037 37.25960297268472 74.13990107265899 36.37000000000001 74.60000000000001 C 34.0050017501847 76.00305478195774 32.177882230541805 78.15757722130543 31.180000000000007 80.72000000000001 C 28.80559186490455 86.02489619838573 28.429120851829545 92.00936466094596 30.120000000000015 97.57000000000004 C 28.41 97.27 26.7 97 25 96.64 Z M 124.55 75.33 C 126.40650086088807 77.17578223517606 127.74760110121974 79.47530372695299 128.44 82 C 129.26851382021488 84.46804141807415 129.68080487033805 87.05668850327379 129.66 89.65999999999998 C 130.79999999999998 82.74 131.32999999999998 75.38 129.41 68.55 C 127.08 69.25 124.72999999999999 69.92999999999999 122.41 70.61999999999999 C 121.56 70.88 120.71 71.13 119.86999999999999 71.41999999999999 C 119.57999999999998 71.51999999999998 118.86999999999999 71.67999999999999 118.66 71.96999999999998 C 118.36 72.44999999999999 119.5 72.60999999999999 119.82 72.69999999999999 C 121.59260241894498 73.1726284441508 123.2208936732892 74.07608962535866 124.55999999999999 75.32999999999998 Z M 110.55 79.75 C 110.05 83.14 111.55 86.75 112.89 89.84 C 114.28322488436214 92.98395826401332 115.95664480908566 95.99611412851567 117.89 98.84 C 126.18341878636141 111.15264376790634 139.22559108161346 119.4597829548544 153.89 121.77000000000001 C 152.73999999999998 121.00000000000001 151.6 120.19000000000001 150.48999999999998 119.35000000000001 C 150.0406430220634 118.91096937976187 149.52415994193524 118.54639308790671 148.95999999999998 118.27000000000001 C 148.51 118.14000000000001 148.02999999999997 118.10000000000001 147.57999999999998 117.97000000000001 C 145.37658592052728 117.27468193236056 143.26989104361337 116.30365351222004 141.30999999999997 115.08000000000001 C 137.2681039290436 112.83721015012985 133.43308051224443 110.24037055899879 129.84999999999997 107.32 C 126.82509350107803 104.78219548434078 124.08258273299326 101.92569282614004 121.66999999999996 98.80000000000003 C 118.84613124586417 95.3210790179275 116.54829793935019 91.44643341310189 114.84999999999997 87.30000000000003 C 113.21999999999997 82.98000000000002 112.44999999999996 78.14000000000001 115.34999999999997 74.19000000000001 C 112.74561365040879 74.86696237278323 110.82614166219278 77.0765408933797 110.52 79.75 Z M 131.76 96.81 C 130.35999999999999 97.08 128.95 97.32000000000001 127.55 97.55 C 129.02568400645575 92.63860177594887 128.89959639969626 87.38495149430346 127.19 82.54999999999998 C 126.41628272812385 79.95031469997974 124.95482832200788 77.60784168024779 122.96 75.77 C 121.7437154723608 74.66457859096123 120.19759881367693 73.98990950353554 118.55999999999999 73.85 C 118.14371021709411 73.82493728663296 117.72628978290587 73.82493728663296 117.30999999999999 73.85 C 116.66999999999999 73.85 116.49999999999999 73.85 116.10999999999999 74.41 C 115.59515280785565 75.06141450772732 115.1619346892164 75.77336986549106 114.81999999999998 76.53 C 113.99910535917753 78.66868382880602 113.85939462904354 81.00883855855047 114.41999999999997 83.23 C 115.1231820021619 86.36479326148189 116.33956891237692 89.3618354541506 118.01999999999998 92.10000000000001 C 120.97669726481793 97.17801730644496 124.71215991997582 101.76045478223936 129.09 105.68000000000002 C 131.5818506748413 107.9030533422744 134.25815060246094 109.91027828798914 137.08999999999995 111.67999999999998 C 140.42999999999998 113.78 143.90999999999997 116.18 147.74999999999997 117.26 C 145.1801279282394 115.12735301578498 142.8798270544911 112.6893698999583 140.9 110 C 139.56700892799026 108.08069084136751 138.5257057217244 105.97449503581356 137.81 103.75 C 141.95827468306396 103.33938412071056 146.04726645588002 102.4638903941273 150.00000000000003 101.13999999999999 C 148.65 100.71 147.25 100.42 145.92 99.91 C 143.6464506919353 99.04133511862062 141.596286547452 97.67455902229841 139.92 95.91 C 139.77812126921646 95.71163856083476 139.61368651301652 95.53042474787972 139.42999999999998 95.36999999999999 C 139.2 95.24 139.01 95.36999999999999 138.73 95.36999999999999 L 137.39 95.64999999999999 C 135.48 96.07 133.61 96.47 131.73 96.81 Z M 78.61 22.47 C 96.495544247715 22.466687154561054 113.32410573516673 30.94102086748491 123.97101762818664 45.31238027271124 C 134.61792952120658 59.68373967793757 137.82292036212488 78.25099169121543 132.61 95.36000000000001 Q 142.42000000000002 93.44 152.09 90.84 C 152.44 90.75 152.99 90.69 153.09 90.42 C 153.20302629190812 90.03686862922028 153.2602807592063 89.63945526797416 153.26 89.24 C 153.38 88.41 153.48 87.57 153.57 86.74 C 153.73999999999998 85.14999999999999 153.85 83.55 153.91 81.94999999999999 C 154.0166632404267 79.25008606913079 153.98328511338008 76.54645777835304 153.81 73.84999999999998 C 153.20420565202244 64.5515163654237 150.87460720223504 55.44675386516295 146.94 47.000000000000014 C 139.18765737328374 30.49661500360943 125.75121115790454 17.337062527939512 109.08999999999992 9.929999999999964 C 85.2236742283434 -0.6303947812744486 57.593141881111734 1.9039201001409864 36.04610276483071 16.629698486924624 C 14.49906364854968 31.355476873708263 2.1007497313152186 56.17786357844088 3.269999999999996 82.25 C 3.34 83.85 3.46 85.44 3.63 87.03 C 3.71 87.82000000000001 3.81 88.6 3.92 89.38 C 3.92 89.64 3.92 90.38 4.1 90.55 C 4.279999999999999 90.72 5.1899999999999995 90.85 5.43 90.92 C 8.62 91.78 11.83 92.58 15.04 93.32000000000001 C 18.25 94.06000000000002 21.4 94.72000000000001 24.6 95.32000000000001 C 19.39549318892861 78.21257154362306 22.604198743883092 59.650928764892846 33.249695146244406 45.28345139815038 C 43.89519154860572 30.915974031407927 60.7184174129654 22.44192862792302 78.6 22.440000000000012 Z M 78.61 0.1 C 56.0347408809198 0.08348438166264738 34.54312453115736 9.77832033192052 19.614438300756717 26.71280953276473 C 4.685752070356074 43.64729873360894 -2.2374144380803216 66.18502672301045 0.6099999999999994 88.57999999999997 C 0.6134981643560811 88.88374592698774 0.6537918720673748 89.18594873482246 0.7299999999999986 89.48 C 0.8699999999999994 89.72 1.1399999999999995 89.74000000000001 1.4499999999999993 89.82000000000001 L 3.249999999999999 90.33000000000001 C -1.3695273791801208 60.06722044557251 12.57996128496367 29.979851274632672 38.661715043459424 13.951190056425375 C 64.74346880195517 -2.077471161781915 97.88747356934199 -0.9316240520261374 122.80000000000001 16.860000000000028 C 129.44292268430956 21.618643921137036 135.28602792544314 27.404364535407947 140.11 34.000000000000014 C 150.2325399007044 47.789258896543984 155.39543331997623 64.59597474398919 154.76000000000002 81.68999999999996 C 154.66014128646103 84.59337646135062 154.38967466402988 87.4883710495949 153.95000000000002 90.36 L 156.04000000000002 89.77 C 156.53000000000003 89.64 156.48000000000002 89.53 156.54000000000002 89.06 C 156.60000000000002 88.59 156.65000000000003 88.16 156.70000000000002 87.72 C 156.88000000000002 86.16 157.01000000000002 84.6 157.10000000000002 83.03 Q 157.31000000000003 79.03 157.10000000000002 75.09 C 156.89726269294843 70.65290578778173 156.3219037552956 66.24070556240929 155.38 61.89999999999994 C 147.77704063148897 27.01829034566618 117.59973304398846 1.6562046087511817 81.93 0.1700000000000017 C 80.82 0.12 79.71 0.1 78.61 0.1 Z M 131.74 78.71 C 131.73803415205185 84.61545377059507 130.75116239467738 90.47922945225503 128.82000000000002 96.06 L 130.57000000000002 95.74000000000001 C 130.86873589642812 95.7225463346559 131.1642395107422 95.66881840478061 131.45000000000002 95.58000000000001 C 131.83 95.4 131.77 95.42000000000002 131.91000000000003 94.98000000000002 C 132.24000000000004 93.88000000000002 132.53000000000003 92.78000000000002 132.79000000000002 91.67000000000002 C 133.30007616516374 89.50794124881244 133.68075199505518 87.31738559610366 133.93 85.11 C 134.35568007289837 81.12132522027893 134.35568007289837 77.09867477972108 133.93 73.11 C 133.24880678461213 66.45718850503813 131.3684677728094 59.98272390764163 128.38 53.99999999999998 C 115.71354207318629 28.74747067897889 86.14056991452429 16.98631155880156 59.5908897894721 26.642598566662365 C 33.04120966441991 36.29888557452317 17.933868514139718 64.31055795437545 24.450000000000017 91.80000000000004 C 24.7 92.86 24.99 93.91 25.3 94.95 C 25.44 95.4 25.38 95.39 25.77 95.57000000000001 C 26.05657533793572 95.65730844609635 26.351525455616702 95.7142874461029 26.65 95.74000000000001 L 28.4 96.06 C 21.670997211637165 76.59225834205733 26.800655760573015 54.9893642486632 41.56320960116936 40.6248437940958 C 56.32576344176571 26.260323339528412 78.06076223463674 21.72289482626573 97.33735949094643 28.981354856067114 C 116.61395674725614 36.2398148858685 129.95819868729174 53.98607187388906 131.58 74.51999999999997 C 131.68 75.92 131.74 77.31 131.74 78.71 Z" stroke-linecap="round" />
</g>
</g>
</g>
</g>
</g>
<g transform="matrix(0.43301949301441073 1.8717174517702342 -1.8717174517702342 0.43301949301441073 330.85706990161657 483.5410157067681)" id="tagline-7dfcb3ca-2c9d-4f44-ba55-5f136b1dd3e1-logo-0"  >
<g style=""  paint-order="stroke"   >
		<g transform="matrix(1 0 0 1 0 0)" id="2237b537-4b26-4be3-b4bb-f20ec1f2608d-path-0"  >
<path style="stroke: none; stroke-width: 0; stroke-dasharray: none; stroke-linecap: butt; stroke-dashoffset: 0; stroke-linejoin: miter; stroke-miterlimit: 4; fill: rgb(252,252,252); fill-rule: nonzero; opacity: 1;"  paint-order="stroke"  transform=" translate(-11.89, 11.719999999999999)" d="M 11.91 0.3 C 18.26 0.3 23.04 -4.58 23.04 -11.74 C 23.04 -18.63 18.56 -23.74 11.91 -23.74 C 5.52 -23.74 0.74 -18.89 0.74 -11.74 C 0.74 -4.82 5.22 0.3 11.91 0.3 Z M 4.25 -11.74 C 4.25 -18.49 7.52 -23.07 11.91 -23.07 C 16.45 -23.07 19.53 -18.26 19.53 -11.74 C 19.53 -4.98 16.25 -0.37 11.91 -0.37 C 7.32 -0.37 4.25 -5.18 4.25 -11.74 Z" stroke-linecap="round" />
</g>
</g>
</g>
<g transform="matrix(0.9144599666575866 1.6895546957622656 -1.6895546957622656 0.9144599666575866 360.8305737306371 562.8481414040807)" id="tagline-7dfcb3ca-2c9d-4f44-ba55-5f136b1dd3e1-logo-1"  >
<g style=""  paint-order="stroke"   >
		<g transform="matrix(1 0 0 1 0 0)" id="402823a3-c673-41cd-aa33-e2fb9112d47f-path-0"  >
<path style="stroke: none; stroke-width: 0; stroke-dasharray: none; stroke-linecap: butt; stroke-dashoffset: 0; stroke-linejoin: miter; stroke-miterlimit: 4; fill: rgb(252,252,252); fill-rule: nonzero; opacity: 1;"  paint-order="stroke"  transform=" translate(-11.440000000000001, 11.705)" d="M 4.75 -20.73 L 9.76 -11.7 L 4.48 -2.64 C 3.38 -0.74 1.84 -0.47 0.74 0 L 5.89 0 C 4.78 -0.47 4.11 -0.74 5.22 -2.64 L 10.13 -11.04 L 14.78 -2.68 C 15.82 -0.77 15.15 -0.47 14.05 0 L 22.14 0 C 21.03 -0.47 19.5 -0.77 18.46 -2.68 L 12.44 -13.54 L 16.45 -20.73 C 17.49 -22.64 19.03 -22.94 20.13 -23.41 L 15.02 -23.41 C 16.12 -22.94 16.79 -22.64 15.75 -20.77 L 12.07 -14.18 L 8.43 -20.73 C 7.39 -22.64 8.06 -22.94 9.16 -23.41 L 1.07 -23.41 C 2.17 -22.94 3.71 -22.64 4.75 -20.73 Z" stroke-linecap="round" />
</g>
</g>
</g>
<g transform="matrix(1.3318247556451854 1.3845847467173533 -1.3845847467173535 1.3318247556451854 411.1207546824725 631.6727844503273)" id="tagline-7dfcb3ca-2c9d-4f44-ba55-5f136b1dd3e1-logo-2"  >
<g style=""  paint-order="stroke"   >
		<g transform="matrix(1 0 0 1 0 0)" id="1bd8fc89-ddb7-4e18-be54-e98ed40d107c-path-0"  >
<path style="stroke: none; stroke-width: 0; stroke-dasharray: none; stroke-linecap: butt; stroke-dashoffset: 0; stroke-linejoin: miter; stroke-miterlimit: 4; fill: rgb(252,252,252); fill-rule: nonzero; opacity: 1;"  paint-order="stroke"  transform=" translate(-9.700000000000001, 11.705)" d="M 2.94 -20.37 L 2.94 -3.04 C 2.94 -0.87 1.84 -0.47 0.74 0 L 16.75 0 L 18.66 -3.81 C 17.22 -2.57 15.68 -0.67 12.21 -0.67 L 6.29 -0.67 L 6.29 -11.37 L 10.7 -11.37 C 12.87 -11.37 13.28 -10.27 13.74 -9.16 L 13.74 -14.25 C 13.28 -13.14 12.87 -12.04 10.7 -12.04 L 6.29 -12.04 L 6.29 -22.74 L 12.54 -22.74 C 15.78 -22.74 16.39 -21.1 17.09 -19.43 L 17.09 -23.41 L 0.74 -23.41 C 1.84 -22.94 2.94 -22.54 2.94 -20.37 Z" stroke-linecap="round" />
</g>
</g>
</g>
<g transform="matrix(1.6409683254343586 0.9990270544449101 -0.9990270544449101 1.6409683254343586 474.6748183421811 682.6329611593437)" id="tagline-7dfcb3ca-2c9d-4f44-ba55-5f136b1dd3e1-logo-3"  >
<g style=""  paint-order="stroke"   >
		<g transform="matrix(1 0 0 1 0 0)" id="41550e52-6076-401e-9907-48816692a7ac-path-0"  >
<path style="stroke: none; stroke-width: 0; stroke-dasharray: none; stroke-linecap: butt; stroke-dashoffset: 0; stroke-linejoin: miter; stroke-miterlimit: 4; fill: rgb(252,252,252); fill-rule: nonzero; opacity: 1;"  paint-order="stroke"  transform=" translate(-9.700000000000001, 11.705)" d="M 2.94 -20.37 L 2.94 -3.04 C 2.94 -0.87 1.84 -0.47 0.74 0 L 16.75 0 L 18.66 -3.81 C 17.22 -2.57 15.68 -0.67 12.21 -0.67 L 6.29 -0.67 L 6.29 -20.37 C 6.29 -22.54 7.39 -22.94 8.49 -23.41 L 0.74 -23.41 C 1.84 -22.94 2.94 -22.54 2.94 -20.37 Z" stroke-linecap="round" />
</g>
</g>
</g>
<g transform="matrix(1.8214550997097398 0.6108464785304879 -0.6108464785304879 1.8214550997097398 538.6908506068627 712.392082992641)" id="tagline-7dfcb3ca-2c9d-4f44-ba55-5f136b1dd3e1-logo-4"  >
<g style=""  paint-order="stroke"   >
		<g transform="matrix(1 0 0 1 0 0)" id="bd15d9f1-1b1b-43b5-9919-fbc922ac896d-path-0"  >
<path style="stroke: none; stroke-width: 0; stroke-dasharray: none; stroke-linecap: butt; stroke-dashoffset: 0; stroke-linejoin: miter; stroke-miterlimit: 4; fill: rgb(252,252,252); fill-rule: nonzero; opacity: 1;"  paint-order="stroke"  transform=" translate(-4.615, 11.705)" d="M 2.94 -20.37 L 2.94 -3.04 C 2.94 -0.87 1.84 -0.47 0.74 0 L 8.49 0 C 7.39 -0.47 6.29 -0.87 6.29 -3.04 L 6.29 -20.37 C 6.29 -22.54 7.39 -22.94 8.49 -23.41 L 0.74 -23.41 C 1.84 -22.94 2.94 -22.54 2.94 -20.37 Z" stroke-linecap="round" />
</g>
</g>
</g>
<g transform="matrix(1.9141343950073564 0.1640780864147861 -0.16407808641478613 1.9141343950073566 612.3383315335684 727.6330543937438)" id="tagline-7dfcb3ca-2c9d-4f44-ba55-5f136b1dd3e1-logo-5"  >
<g style=""  paint-order="stroke"   >
		<g transform="matrix(1 0 0 1 0 0)" id="a0b11e74-9a94-4854-b027-3ff8070f432f-path-0"  >
<path style="stroke: none; stroke-width: 0; stroke-dasharray: none; stroke-linecap: butt; stroke-dashoffset: 0; stroke-linejoin: miter; stroke-miterlimit: 4; fill: rgb(252,252,252); fill-rule: nonzero; opacity: 1;"  paint-order="stroke"  transform=" translate(-11.89, 11.719999999999999)" d="M 11.91 0.3 C 18.26 0.3 23.04 -4.58 23.04 -11.74 C 23.04 -18.63 18.56 -23.74 11.91 -23.74 C 5.52 -23.74 0.74 -18.89 0.74 -11.74 C 0.74 -4.82 5.22 0.3 11.91 0.3 Z M 4.25 -11.74 C 4.25 -18.49 7.52 -23.07 11.91 -23.07 C 16.45 -23.07 19.53 -18.26 19.53 -11.74 C 19.53 -4.98 16.25 -0.37 11.91 -0.37 C 7.32 -0.37 4.25 -5.18 4.25 -11.74 Z" stroke-linecap="round" />
</g>
</g>
</g>
<g transform="matrix(1.8844690395566173 -0.3736422614537557 0.3736422614537557 1.8844690395566173 700.9762994015084 722.7623231578049)" id="tagline-7dfcb3ca-2c9d-4f44-ba55-5f136b1dd3e1-logo-6"  >
<g style=""  paint-order="stroke"   >
		<g transform="matrix(1 0 0 1 0 0)" id="ac9adb81-d7f3-4642-940e-30a95d031e45-path-0"  >
<path style="stroke: none; stroke-width: 0; stroke-dasharray: none; stroke-linecap: butt; stroke-dashoffset: 0; stroke-linejoin: miter; stroke-miterlimit: 4; fill: rgb(252,252,252); fill-rule: nonzero; opacity: 1;"  paint-order="stroke"  transform=" translate(-10.97, 11.705)" d="M 2.94 -20.37 L 2.94 -3.04 C 2.94 -0.87 1.84 -0.47 0.74 0 L 5.82 0 C 4.72 -0.47 3.61 -0.87 3.61 -3.04 L 3.61 -21.37 L 17.66 0 L 18.99 0 L 18.99 -20.37 C 18.99 -22.54 20.1 -22.94 21.2 -23.41 L 16.12 -23.41 C 17.22 -22.94 18.33 -22.54 18.33 -20.37 L 18.33 -5.12 L 6.29 -23.41 L 0.74 -23.41 C 1.84 -22.94 2.94 -22.54 2.94 -20.37 Z" stroke-linecap="round" />
</g>
</g>
</g>
<g transform="matrix(0.9134847315343817 -0.40687300875526045 0.4068730087552605 0.9134847315343818 399.5477199317519 367.9217197118403)" id="tagline-7dfcb3ca-2c9d-4f44-ba55-5f136b1dd3e1-logo-7"  >
<g style=""  paint-order="stroke"   >
		<g transform="matrix(1 0 0 1 0 0)" id="a6d5a13f-011e-427b-b41d-e2fe397bfb19-path-0"  >
<path style="stroke: none; stroke-width: 0; stroke-dasharray: none; stroke-linecap: butt; stroke-dashoffset: 0; stroke-linejoin: miter; stroke-miterlimit: 4; fill: rgb(252,252,252); fill-rule: nonzero; opacity: 1;"  paint-order="stroke"  transform=" translate(0, 0)" d="" stroke-linecap="round" />
</g>
</g>
</g>
<g transform="matrix(1.5589520478027235 -1.1227201847492585 1.1227201847492587 1.558952047802724 824.2081501532757 668.8727913861412)" id="tagline-7dfcb3ca-2c9d-4f44-ba55-5f136b1dd3e1-logo-8"  >
<g style=""  paint-order="stroke"   >
		<g transform="matrix(1 0 0 1 0 0)" id="2f05fc70-5d02-4447-a7ff-e484f8cebebf-path-0"  >
<path style="stroke: none; stroke-width: 0; stroke-dasharray: none; stroke-linecap: butt; stroke-dashoffset: 0; stroke-linejoin: miter; stroke-miterlimit: 4; fill: rgb(252,252,252); fill-rule: nonzero; opacity: 1;"  paint-order="stroke"  transform=" translate(-8.26, 11.87)" d="M 7.02 -23.07 C 10.1 -23.07 12.01 -20.83 12.01 -18.53 C 12.01 -12.74 0.74 -11.27 0.74 0 L 15.78 0 L 15.78 -3.98 C 15.08 -2.34 14.48 -0.67 11.24 -0.67 L 4.45 -0.67 C 4.95 -9.53 15.52 -10.33 15.52 -17.46 C 15.52 -20.87 12.27 -23.74 7.02 -23.74 C 4.82 -23.74 2.74 -22.54 1.2 -21 L 1.54 -20.53 L 2.94 -18.69 C 2.54 -19.76 2.07 -20.87 3.24 -21.84 C 4.35 -22.57 5.65 -23.07 7.02 -23.07 Z" stroke-linecap="round" />
</g>
</g>
</g>
<g transform="matrix(1.23356468693907 -1.47280353874121 1.47280353874121 1.23356468693907 882.1216613057693 615.4321169576486)" id="tagline-7dfcb3ca-2c9d-4f44-ba55-5f136b1dd3e1-logo-9"  >
<g style=""  paint-order="stroke"   >
		<g transform="matrix(1 0 0 1 0 0)" id="350373a0-5b1f-4bb2-b09f-81ca9c3b39b6-path-0"  >
<path style="stroke: none; stroke-width: 0; stroke-dasharray: none; stroke-linecap: butt; stroke-dashoffset: 0; stroke-linejoin: miter; stroke-miterlimit: 4; fill: rgb(252,252,252); fill-rule: nonzero; opacity: 1;"  paint-order="stroke"  transform=" translate(-9.885000000000002, 11.719999999999999)" d="M 9.9 0.3 C 15.25 0.3 19.03 -4.58 19.03 -11.74 C 19.03 -18.63 15.55 -23.74 9.9 -23.74 C 4.51 -23.74 0.74 -18.89 0.74 -11.74 C 0.74 -4.82 4.21 0.3 9.9 0.3 Z M 4.25 -11.74 C 4.25 -18.49 6.52 -23.07 9.9 -23.07 C 13.44 -23.07 15.52 -18.26 15.52 -11.74 C 15.52 -4.98 13.24 -0.37 9.9 -0.37 C 6.32 -0.37 4.25 -5.18 4.25 -11.74 Z" stroke-linecap="round" />
</g>
</g>
</g>
<g transform="matrix(0.8318287687540895 -1.7317312147284207 1.7317312147284207 0.8318287687540895 924.5064471219246 549.142550513108)" id="tagline-7dfcb3ca-2c9d-4f44-ba55-5f136b1dd3e1-logo-10"  >
<g style=""  paint-order="stroke"   >
		<g transform="matrix(1 0 0 1 0 0)" id="b6a72ba7-2678-4002-8f9c-558d5a9c55a2-path-0"  >
<path style="stroke: none; stroke-width: 0; stroke-dasharray: none; stroke-linecap: butt; stroke-dashoffset: 0; stroke-linejoin: miter; stroke-miterlimit: 4; fill: rgb(252,252,252); fill-rule: nonzero; opacity: 1;"  paint-order="stroke"  transform=" translate(-8.26, 11.87)" d="M 7.02 -23.07 C 10.1 -23.07 12.01 -20.83 12.01 -18.53 C 12.01 -12.74 0.74 -11.27 0.74 0 L 15.78 0 L 15.78 -3.98 C 15.08 -2.34 14.48 -0.67 11.24 -0.67 L 4.45 -0.67 C 4.95 -9.53 15.52 -10.33 15.52 -17.46 C 15.52 -20.87 12.27 -23.74 7.02 -23.74 C 4.82 -23.74 2.74 -22.54 1.2 -21 L 1.54 -20.53 L 2.94 -18.69 C 2.54 -19.76 2.07 -20.87 3.24 -21.84 C 4.35 -22.57 5.65 -23.07 7.02 -23.07 Z" stroke-linecap="round" />
</g>
</g>
</g>
<g transform="matrix(0.393044433593493 -1.8805180599539284 1.8805180599539284 0.393044433593493 949.621815343319 476.9684935152941)" id="tagline-7dfcb3ca-2c9d-4f44-ba55-5f136b1dd3e1-logo-11"  >
<g style=""  paint-order="stroke"   >
		<g transform="matrix(1 0 0 1 0 0)" id="40224e0f-b5c3-4477-b534-1842d222665c-path-0"  >
<path style="stroke: none; stroke-width: 0; stroke-dasharray: none; stroke-linecap: butt; stroke-dashoffset: 0; stroke-linejoin: miter; stroke-miterlimit: 4; fill: rgb(252,252,252); fill-rule: nonzero; opacity: 1;"  paint-order="stroke"  transform=" translate(-8.745000000000001, 11.555)" d="M 8.29 -14.01 L 6.39 -14.01 L 7.49 -22.74 L 10.4 -22.74 C 13.64 -22.74 14.25 -21.1 14.95 -19.43 L 14.95 -23.41 L 3.91 -23.41 L 2.61 -13.34 L 8.29 -13.34 C 11.44 -13.34 13.31 -10.6 13.31 -6.86 C 13.31 -3.01 11.3 -0.37 8.29 -0.37 C 6.35 -0.37 4.41 -1.04 2.81 -2.27 C 1.71 -3.31 2.31 -4.21 2.94 -5.18 L 0.74 -3.28 C 2.71 -1.04 5.52 0.3 8.29 0.3 C 13.24 0.3 16.75 -2.61 16.75 -6.86 C 16.75 -10.94 13.54 -14.01 8.29 -14.01 Z" stroke-linecap="round" />
</g>
</g>
</g>
<g transform="matrix(1.9211538461538462 0 0 1.9211538461538462 640.010745390122 379.37061787685116)" id="tagline-aa972bb6-df09-4cc1-a477-7de58f49eaec-logo"  >
<g style=""  paint-order="stroke"   >
		<g transform="matrix(1 0 0 1 0 0)" id="tagline-aa972bb6-df09-4cc1-a477-7de58f49eaec-logo-path-0"  >
<filter id="SVGID_254270" y="-20%" height="140%" x="-25.613963610095553%" width="151.2279272201911%" >
	<feGaussianBlur in="SourceAlpha" stdDeviation="0"></feGaussianBlur>
	<feOffset dx="3.0389017623970846" dy="0" result="oBlur" ></feOffset>
	<feFlood flood-color="rgb(208,202,183)" flood-opacity="1"/>
	<feComposite in2="oBlur" operator="in" />
	<feMerge>
		<feMergeNode></feMergeNode>
		<feMergeNode in="SourceGraphic"></feMergeNode>
	</feMerge>
</filter>
<path style="stroke: none; stroke-width: 0; stroke-dasharray: none; stroke-linecap: butt; stroke-dashoffset: 0; stroke-linejoin: miter; stroke-miterlimit: 4; fill: rgb(0,0,0); fill-rule: nonzero; opacity: 1;filter: url(#SVGID_254270);"  paint-order="stroke"  transform=" translate(-28.63824925948299, 27.255)" d="M 28.28 0.79 C 44 0.79 55.54 -10.03 55.7 -27.33 C 55.93 -43.61 45.74 -55.3 28.91 -55.3 C 13.19 -55.3 1.66 -44.48 1.58 -27.33 C 1.26 -10.9 11.46 0.79 28.28 0.79 Z M 13.59 -27.25 C 11.77 -41.16 16.35 -51.11 25.83 -51.11 C 34.6 -51.11 41.95 -42.19 43.77 -27.25 C 45.5 -13.19 40.92 -3.24 31.44 -3.24 C 22.59 -3.24 15.17 -12.25 13.59 -27.25 Z" stroke-linecap="round" />
</g>
</g>
</g>
<g transform="matrix(1 0 0 1 325 402.71451270194177)" id="tagline-47e4ba6e-68b3-4cf3-846c-0eff6c501f3a-logo"  >
<g style=""  paint-order="stroke"   >
		<g transform="matrix(1 0 0 1 0 0)" id="tagline-47e4ba6e-68b3-4cf3-846c-0eff6c501f3a-logo-path-0"  >
<path style="stroke: none; stroke-width: 0; stroke-dasharray: none; stroke-linecap: butt; stroke-dashoffset: 0; stroke-linejoin: miter; stroke-miterlimit: 4; fill: rgb(82,82,82); fill-rule: nonzero; opacity: 1;"  paint-order="stroke"  transform=" translate(0, 0)" d="" stroke-linecap="round" />
</g>
</g>
</g>
</svg>